<svg width="40" height="40" viewBox="0 0 40 40" fill="none" xmlns="http://www.w3.org/2000/svg">
<path d="M18.9577 5.83376C18.326 5.93528 17.6661 6.18344 14.9251 7.36786C13.4191 8.02212 11.4902 8.85121 10.6386 9.21782C6.46491 11.0114 5.22973 11.5528 4.9872 11.7107C4.32167 12.1337 3.98327 12.6526 3.93815 13.3069C3.90431 13.8483 4.05659 14.2431 4.4796 14.6944C4.89132 15.1456 4.68264 15.044 12.0768 18.3097C16.7412 20.3739 17.7733 20.8195 18.1399 20.9379C19.0198 21.2312 20.2155 21.3102 21.163 21.1466C21.9808 21 22.6802 20.7293 25.1731 19.6069C26.4703 19.0203 28.1793 18.2476 28.9689 17.8866C29.7585 17.5313 30.5876 17.1591 30.8019 17.0576C31.0219 16.956 32.0484 16.4935 33.0862 16.0311C34.1239 15.5686 35.0771 15.1117 35.2012 15.0271C35.9626 14.5026 36.2672 13.7412 36.0247 12.9572C35.7652 12.0943 35.4437 11.8461 33.5092 11.0283C32.7026 10.6899 31.8002 10.3064 31.5069 10.1766C31.2137 10.0469 29.7529 9.40958 28.2639 8.76661C26.7749 8.12364 24.7614 7.24942 23.7913 6.82641C22.8156 6.40341 21.8116 6.00296 21.5634 5.94092C21.0389 5.80556 19.5443 5.74916 18.9577 5.83376Z" fill="black"/>
<path d="M5.27854 18.4339C4.4438 18.6538 3.86851 19.4547 3.94184 20.2725C4.00952 21.0396 4.40432 21.4513 5.64514 22.0492C6.93673 22.6752 15.7353 26.6176 16.8407 27.0688C18.0703 27.5708 18.8655 27.7344 20.0556 27.7344C21.7081 27.7287 22.4244 27.5031 26.0341 25.8731C30.8733 23.6848 34.5168 22.0153 34.9003 21.8123C35.4192 21.5415 35.7576 21.2313 35.9437 20.8535C36.4796 19.748 35.6166 18.3887 34.3814 18.3944C33.981 18.4 33.7949 18.4621 32.5766 19.0486C32.2213 19.2178 30.7492 19.9003 29.3054 20.5545C27.8615 21.2144 25.91 22.1112 24.9625 22.5398C22.5429 23.6453 21.7251 23.9047 20.3658 23.9724C19.2942 24.0288 18.4482 23.8765 17.2186 23.3971C16.6095 23.1603 12.543 21.3441 8.54979 19.528C5.85383 18.2985 5.81435 18.2872 5.27854 18.4339Z" fill="black"/>
<path d="M5.25215 24.9113C4.7671 25.0297 4.29897 25.4302 4.09029 25.904C3.79136 26.5808 3.92673 27.3478 4.43997 27.8611C4.73326 28.1544 4.7953 28.1882 8.97461 30.1735C13.4529 32.3055 15.8161 33.3771 16.7579 33.6986C18.9745 34.4487 21.4279 34.3867 23.7517 33.5181C25.032 33.0387 28.7826 31.2959 34.0223 28.7522C35.6466 27.9626 35.9286 27.7088 36.0809 26.891C36.1373 26.5751 36.1317 26.4736 36.0584 26.2085C35.8215 25.402 35.1277 24.8605 34.3325 24.8605C33.9884 24.8605 33.8305 24.9169 32.7476 25.4245C32.2682 25.6502 31.6986 25.9152 31.4786 26.0168C31.2643 26.1183 29.8655 26.7838 28.3765 27.5001C24.5187 29.3444 23.464 29.8069 22.3191 30.1397C20.9091 30.5514 19.1719 30.5401 17.6096 30.1115C17.0118 29.9479 15.19 29.147 12.3869 27.8216C8.1286 25.8024 6.31249 24.9677 6.10944 24.9169C5.83872 24.8549 5.49467 24.8549 5.25215 24.9113Z" fill="black"/>
</svg>
